<svg width="112" height="24" viewBox="0 0 112 24" fill="none" xmlns="http://www.w3.org/2000/svg">
<path opacity="0.8" d="M11.0491 4.66617C11.3484 3.74486 12.6518 3.74486 12.9512 4.66617L14.2453 8.64895C14.3791 9.06098 14.7631 9.33994 15.1963 9.33994H19.3841C20.3528 9.33994 20.7556 10.5796 19.9718 11.149L16.5839 13.6104C16.2334 13.8651 16.0867 14.3165 16.2206 14.7285L17.5147 18.7113C17.814 19.6326 16.7596 20.3987 15.9759 19.8293L12.5879 17.3678C12.2374 17.1132 11.7628 17.1132 11.4123 17.3678L8.02437 19.8293C7.24066 20.3987 6.18618 19.6326 6.48553 18.7113L7.77962 14.7285C7.91349 14.3165 7.76683 13.8651 7.41635 13.6104L4.02839 11.149C3.24468 10.5795 3.64745 9.33994 4.61618 9.33994H8.80392C9.23714 9.33994 9.6211 9.06098 9.75497 8.64895L11.0491 4.66617Z" fill="#ED8F3A"/>
<path opacity="0.8" d="M33.0491 4.66617C33.3484 3.74486 34.6518 3.74486 34.9512 4.66617L36.2453 8.64895C36.3791 9.06098 36.7631 9.33994 37.1963 9.33994H41.3841C42.3528 9.33994 42.7556 10.5796 41.9718 11.149L38.5839 13.6104C38.2334 13.8651 38.0867 14.3165 38.2206 14.7285L39.5147 18.7113C39.814 19.6326 38.7596 20.3987 37.9759 19.8293L34.5879 17.3678C34.2374 17.1132 33.7628 17.1132 33.4123 17.3678L30.0244 19.8293C29.2407 20.3987 28.1862 19.6326 28.4855 18.7113L29.7796 14.7285C29.9135 14.3165 29.7668 13.8651 29.4163 13.6104L26.0284 11.149C25.2447 10.5795 25.6475 9.33994 26.6162 9.33994H30.8039C31.2371 9.33994 31.6211 9.06098 31.755 8.64895L33.0491 4.66617Z" fill="#ED8F3A"/>
<path opacity="0.8" d="M55.0491 4.66617C55.3484 3.74486 56.6518 3.74486 56.9512 4.66617L58.2453 8.64895C58.3791 9.06098 58.7631 9.33994 59.1963 9.33994H63.3841C64.3528 9.33994 64.7556 10.5796 63.9718 11.149L60.5839 13.6104C60.2334 13.8651 60.0867 14.3165 60.2206 14.7285L61.5147 18.7113C61.814 19.6326 60.7596 20.3987 59.9759 19.8293L56.5879 17.3678C56.2374 17.1132 55.7628 17.1132 55.4123 17.3678L52.0244 19.8293C51.2407 20.3987 50.1862 19.6326 50.4855 18.7113L51.7796 14.7285C51.9135 14.3165 51.7668 13.8651 51.4163 13.6104L48.0284 11.149C47.2447 10.5795 47.6475 9.33994 48.6162 9.33994H52.8039C53.2371 9.33994 53.6211 9.06098 53.755 8.64895L55.0491 4.66617Z" fill="#ED8F3A"/>
<path opacity="0.8" d="M77.0491 4.66617C77.3484 3.74486 78.6518 3.74486 78.9512 4.66617L80.2453 8.64895C80.3791 9.06098 80.7631 9.33994 81.1963 9.33994H85.3841C86.3528 9.33994 86.7556 10.5796 85.9718 11.149L82.5839 13.6104C82.2334 13.8651 82.0867 14.3165 82.2206 14.7285L83.5147 18.7113C83.814 19.6326 82.7596 20.3987 81.9759 19.8293L78.5879 17.3678C78.2374 17.1132 77.7628 17.1132 77.4123 17.3678L74.0244 19.8293C73.2407 20.3987 72.1862 19.6326 72.4855 18.7113L73.7796 14.7285C73.9135 14.3165 73.7668 13.8651 73.4163 13.6104L70.0284 11.149C69.2447 10.5795 69.6475 9.33994 70.6162 9.33994H74.8039C75.2371 9.33994 75.6211 9.06098 75.755 8.64895L77.0491 4.66617Z" fill="#ED8F3A"/>
<path opacity="0.8" d="M101 17.6673V4.8168L102.245 8.64896C102.379 9.06098 102.763 9.33994 103.196 9.33994H107.384C108.353 9.33994 108.755 10.5796 107.972 11.149L104.584 13.6105C104.233 13.8651 104.087 14.3165 104.221 14.7285L105.515 18.7113C105.814 19.6326 104.759 20.3987 103.976 19.8293L101 17.6673Z" fill="#869098"/>
<path opacity="0.8" d="M101 4.81681L100.951 4.66617C100.652 3.74486 99.3484 3.74486 99.0491 4.66617L97.755 8.64895C97.6211 9.06098 97.2371 9.33994 96.8039 9.33994H92.6162C91.6475 9.33994 91.2447 10.5795 92.0284 11.149L95.4163 13.6104C95.7668 13.8651 95.9135 14.3165 95.7796 14.7285L94.4855 18.7113C94.1862 19.6326 95.2407 20.3987 96.0244 19.8293L99.4123 17.3678C99.7628 17.1132 100.237 17.1132 100.588 17.3678L101 17.6673V4.81681Z" fill="#ED8F3A"/>
</svg>
